HIERARCHY
ROOT hip
{
	OFFSET 0.000000 0.000000 0.000000 
	CHANNELS 6 Xposition Yposition Zposition Xrotation Zrotation Yrotation
	JOINT abdomen
	{
		OFFSET 0.000000 3.402643 0.000000 
		CHANNELS 3 Xrotation Zrotation Yrotation
		JOINT chest
		{
			OFFSET 0.000000 8.438565 -0.680529 
			CHANNELS 3 Xrotation Zrotation Yrotation
			JOINT neck
			{
				OFFSET 0.000000 10.207942 -0.272212 
				CHANNELS 3 Xrotation Zrotation Yrotation
				JOINT head
				{
					OFFSET 0.000000 3.130431 0.000000 
					CHANNELS 3 Xrotation Zrotation Yrotation
					End Site
					{
						OFFSET 0.000000 3.130435 0.000000 
					}
				}
			}
			JOINT lCollar
			{
				OFFSET 3.470700 6.669187 -0.816635 
				CHANNELS 3 Yrotation Zrotation Xrotation
				JOINT lShldr
				{
					OFFSET 3.198488 0.000000 0.000000 
					CHANNELS 3 Zrotation Yrotation Xrotation
					JOINT lForeArm
					{
						OFFSET 10.139888 0.000000 0.000000 
						CHANNELS 3 Yrotation Zrotation Xrotation
						JOINT lHand
						{
							OFFSET 8.370511 0.000000 0.000000 
							CHANNELS 3 Zrotation Yrotation Xrotation
							End Site
							{
								OFFSET 4.083176 0.000000 0.000000 
							}
						}
					}
				}
			}
			JOINT rCollar
			{
				OFFSET -3.470700 6.669187 -0.816635 
				CHANNELS 3 Yrotation Zrotation Xrotation
				JOINT rShldr
				{
					OFFSET -3.198488 0.000000 0.000000 
					CHANNELS 3 Zrotation Yrotation Xrotation
					JOINT rForeArm
					{
						OFFSET -10.139888 0.000000 0.000000 
						CHANNELS 3 Yrotation Zrotation Xrotation
						JOINT rHand
						{
							OFFSET -8.370511 0.000000 0.000000 
							CHANNELS 3 Zrotation Yrotation Xrotation
							End Site
							{
								OFFSET -4.083176 0.000000 0.000000 
							}
						}
					}
				}
			}
		}
	}
	JOINT lThigh
	{
		OFFSET 5.308129 -1.633274 1.361059 
		CHANNELS 3 Xrotation Zrotation Yrotation
		JOINT lShin
		{
			OFFSET -2.041588 -20.007561 0.000000 
			CHANNELS 3 Xrotation Zrotation Yrotation
			JOINT lFoot
			{
				OFFSET 0.000000 -19.190928 -1.224953 
				CHANNELS 3 Xrotation Yrotation Zrotation
				End Site
				{
					OFFSET 0.000000 -2.449906 4.627600 
				}
			}
		}
	}
	JOINT rThigh
	{
		OFFSET -5.308129 -1.633274 1.361059 
		CHANNELS 3 Xrotation Zrotation Yrotation
		JOINT rShin
		{
			OFFSET 2.041588 -20.007561 0.000000 
			CHANNELS 3 Xrotation Zrotation Yrotation
			JOINT rFoot
			{
				OFFSET 0.000000 -19.190928 -1.224953 
				CHANNELS 3 Xrotation Yrotation Zrotation
				End Site
				{
					OFFSET 0.000000 -2.449906 4.627600 
				}
			}
		}
	}
}
MOTION
Frames: 8
Frame Time: 0.033333
-4.087385 40.214523 52.494518 -24.970703 -2.822266 139.912109 21.904297 0.810547 5.136857 -10.136718 7.001954 6.622284 -29.550779 9.394530 17.306282 21.269529 -18.398438 17.197268 2.099609 2.724609 0.068359 -68.789063 -7.099609 -5.460191 -104.296875 -3.115234 -34.511192 21.093756 -121.152336 -17.000546 8.955078 3.261719 -0.156250 66.513672 17.988279 15.286220 62.695309 3.457031 -40.527344 5.859375 8.496094 0.927734 -71.548218 30.222050 4.537433 64.915192 0.443342 -3.844342 -22.600830 -8.973501 -11.091870 -12.045432 -6.400421 -19.215126 34.202312 0.689038 2.193937 -29.245199 -9.374158 2.085752 
-4.101838 40.183292 52.466961 -24.970703 -2.822266 139.912109 21.904297 0.810547 5.136857 -10.312500 7.001954 6.612520 -29.384766 9.746094 17.277044 21.093750 -18.925781 17.203863 2.099609 2.724609 0.068359 -68.808594 -6.894531 -5.644531 -104.462891 -3.056641 -34.345703 20.664082 -121.074211 -16.629457 9.130859 3.261719 -0.166571 66.660156 17.675781 15.527344 62.568359 3.261719 -40.683590 6.064453 9.345703 1.114869 -71.397774 30.132111 4.260246 64.901955 0.413900 -3.697551 -22.672474 -8.804513 -10.983282 -12.233338 -6.422474 -19.244755 34.207989 0.673702 2.044025 -29.409121 -9.515500 2.213412 
-4.123397 40.137726 52.452141 -25.136719 -2.822266 140.087418 22.080078 0.810547 5.136857 -10.488281 7.001953 6.601563 -29.208982 9.921875 17.267311 20.917969 -19.101563 17.207033 1.923828 2.724609 0.077661 -68.652344 -6.669922 -5.850743 -104.609375 -2.958984 -34.345436 20.664082 -121.074211 -16.629457 8.964844 3.056640 -0.312500 66.962898 17.499998 15.637701 62.509769 3.457031 -40.830666 6.240234 9.345703 1.124634 -71.795364 30.155622 4.342391 65.253548 0.414730 -3.703947 -22.786556 -8.587599 -10.862073 -12.477072 -6.676071 -19.401897 34.566547 0.698857 1.864393 -29.287777 -9.234128 2.204271 
-4.157940 40.090691 52.466114 -25.322266 -2.822266 139.921402 22.255859 0.810547 5.136719 -10.849609 6.835937 6.767578 -29.208982 10.097656 17.247805 20.742188 -19.101561 17.389383 1.923828 2.724609 0.077661 -68.339844 -6.259767 -6.026455 -104.755859 -3.027344 -34.384766 20.380875 -121.015625 -16.248604 8.964844 3.056640 -0.312500 66.914063 17.324219 15.634766 62.578125 3.369140 -41.064453 6.240234 8.994141 1.124575 -72.164619 30.349829 4.121363 65.430260 0.765336 -3.670105 -22.929699 -8.728459 -10.969124 -12.749270 -6.586800 -19.230091 35.082855 0.507784 2.192076 -29.428728 -9.376608 2.101900 
-4.216980 40.045612 52.524780 -25.498047 -2.822266 139.746094 22.412107 0.537109 5.410157 -10.849609 6.835937 6.943359 -29.570311 10.273438 17.238070 20.742188 -19.101561 17.389383 1.923828 3.076172 0.058070 -68.134766 -6.582032 -6.114401 -104.882813 -3.056640 -34.609379 20.664082 -121.074211 -16.629457 8.964845 3.232422 -0.332582 66.953125 17.285156 15.442356 62.900394 3.261719 -40.752506 5.878906 8.828125 1.095250 -72.621292 30.309517 3.625923 65.622917 0.599775 -3.616806 -23.014074 -8.434254 -11.007136 -13.826405 -6.785425 -19.573767 36.316525 0.673760 2.135003 -29.643728 -9.174121 2.019166 
-4.316319 39.996616 52.665272 -25.673828 -3.349610 139.032639 22.558594 0.087891 5.634767 -11.025391 6.660156 7.286289 -30.273441 10.273438 17.236328 20.917971 -18.925783 17.379644 2.099609 3.076172 0.048828 -67.910156 -7.050781 -6.328124 -104.980469 -3.037110 -34.989716 20.664082 -121.074211 -16.629457 8.964845 3.232422 -0.332582 66.738281 17.597658 15.139671 63.222656 3.320313 -40.380859 5.703125 8.828125 1.085485 -73.339722 30.673899 3.505425 65.806007 0.420530 -3.562438 -22.428667 -8.085965 -10.706584 -15.379668 -7.479282 -20.231304 38.421829 0.341683 2.292971 -29.656883 -8.191504 2.713508 
-4.447017 39.918098 52.918102 -25.664064 -3.876953 138.144531 22.871094 -0.742188 5.908203 -11.025391 6.660156 7.813632 -31.162109 10.263672 17.060547 20.917971 -18.574219 17.389467 2.099609 3.076172 0.048828 -67.167969 -7.402343 -6.894532 -105.244141 -3.125000 -35.253376 20.478519 -120.849609 -16.404867 9.140625 3.056641 -0.322786 66.865234 18.515627 14.622243 62.841797 3.457031 -40.899021 6.230469 8.818359 1.114778 -73.754990 31.227993 3.885213 65.974998 0.581019 -3.625106 -21.858992 -8.061274 -10.624282 -18.061647 -8.910663 -21.847713 42.460247 0.507637 2.548838 -29.101543 -7.180343 3.055847 
-4.563138 39.770988 53.301121 -25.664064 -4.404297 136.914063 23.193359 -1.738281 6.142579 -11.201171 6.484375 8.340946 -32.041016 10.429687 17.052546 20.908203 -18.222656 17.441408 1.748047 3.251953 0.067805 -65.546875 -7.734374 -8.018891 -105.712891 -3.037109 -36.073704 20.429697 -120.664063 -16.561134 9.140625 2.714844 -0.264134 66.865234 19.335939 14.436830 63.046875 3.261719 -41.132813 6.210938 8.320313 0.948680 -74.688995 32.309826 4.054654 66.150574 0.589931 -3.627539 -20.854555 -7.746447 -10.316251 -20.865431 -10.483964 -23.690226 47.734882 0.309923 2.355820 -28.701794 -7.524573 3.253689 
